grf
version=1
nRows=12
nColumns=37
inDegrees=no
endheader
time	ground_force_1_vx	ground_force_1_vy	ground_force_1_vz	ground_force_1_px	ground_force_1_py	ground_force_1_pz	ground_moment_1_mx	ground_moment_1_my	ground_moment_1_mz	ground_force_2_vx	ground_force_2_vy	ground_force_2_vz	ground_force_2_px	ground_force_2_py	ground_force_2_pz	ground_moment_2_mx	ground_moment_2_my	ground_moment_2_mz	ground_force_3_vx	ground_force_3_vy	ground_force_3_vz	ground_force_3_px	ground_force_3_py	ground_force_3_pz	ground_moment_3_mx	ground_moment_3_my	ground_moment_3_mz	ground_force_4_vx	ground_force_4_vy	ground_force_4_vz	ground_force_4_px	ground_force_4_py	ground_force_4_pz	ground_moment_4_mx	ground_moment_4_my	ground_moment_4_mz
      6.01000000	      0.00000000	     -0.00000000	      0.00000000	      0.00000000	      0.00000000	      0.00000000	      0.00000000	      0.00000000	      0.00000000	     12.62192726	     71.66175079	   -457.37161255	   -299.04704149	  -1194.65190640	      0.00000000	      0.00000000	      0.00000000	    688.00786688	     -7.45171234	    -73.30801326	   -441.84133911	   -267.50060592	   -586.06976538	      0.00000000	      0.00000000	      0.00000000	  -5452.72381614	      0.00000000	     -0.00000000	      0.00000000	      0.00000000	      0.00000000	      0.00000000	      0.00000000	      0.00000000	      0.00000000
      6.02000000	      0.00000000	     -0.00000000	      0.00000000	      0.00000000	      0.00000000	      0.00000000	      0.00000000	      0.00000000	      0.00000000	     11.91053963	     72.95355225	   -463.01641846	   -299.26991597	  -1195.15590436	      0.00000000	      0.00000000	      0.00000000	    645.56921823	     -8.29483487	    -73.88145374	   -443.94192505	   -268.02136052	   -586.38682438	      0.00000000	      0.00000000	     -0.00000000	  -5622.63575214	      0.00000000	     -0.00000000	      0.00000000	      0.00000000	      0.00000000	      0.00000000	      0.00000000	      0.00000000	      0.00000000
      6.03000000	      0.00000000	     -0.00000000	      0.00000000	      0.00000000	      0.00000000	      0.00000000	      0.00000000	      0.00000000	      0.00000000	     11.95382690	     73.48859406	   -466.72653198	   -299.39174379	  -1195.38491810	      0.00000000	      0.00000000	      0.00000000	    731.77015084	     -8.60445482	    -74.32492753	   -443.94531250	   -267.59861514	   -586.96167463	      0.00000000	      0.00000000	     -0.00000000	  -5574.81036191	      0.00000000	     -0.00000000	      0.00000000	      0.00000000	      0.00000000	      0.00000000	      0.00000000	      0.00000000	      0.00000000
      6.04000000	      0.00000000	     -0.00000000	      0.00000000	      0.00000000	      0.00000000	      0.00000000	      0.00000000	      0.00000000	      0.00000000	     11.37407398	     72.82007599	   -465.66949463	   -299.33695848	  -1195.26367394	      0.00000000	      0.00000000	      0.00000000	    653.48574777	     -8.95979568	    -73.30641096	   -444.11972046	   -267.85336256	   -586.56031777	      0.00000000	     -0.00000000	      0.00000000	  -5626.05299491	      0.00000000	     -0.00000000	      0.00000000	      0.00000000	      0.00000000	      0.00000000	      0.00000000	      0.00000000	      0.00000000
      6.05000000	      0.00000000	     -0.00000000	      0.00000000	      0.00000000	      0.00000000	      0.00000000	      0.00000000	      0.00000000	      0.00000000	     11.82028961	     73.26547241	   -467.96313477	   -300.16127580	  -1194.38399720	      0.00000000	      0.00000000	      0.00000000	    735.27071080	     -9.44772982	    -73.61614908	   -444.81896973	   -268.48769498	   -586.60763890	      0.00000000	      0.00000000	     -0.00000000	  -5551.47917248	      0.00000000	     -0.00000000	      0.00000000	      0.00000000	      0.00000000	      0.00000000	      0.00000000	      0.00000000	      0.00000000
      6.06000000	      0.00000000	     -0.00000000	      0.00000000	      0.00000000	      0.00000000	      0.00000000	      0.00000000	      0.00000000	      0.00000000	     12.17705917	     73.30958557	   -471.13369751	   -300.17339789	  -1195.35973188	      0.00000000	      0.00000000	      0.00000000	    809.57626130	     -9.49252015	    -74.27876962	   -449.52954102	   -269.01469911	   -587.17463787	      0.00000000	     -0.00000000	     -0.00000000	  -5514.07867864	      0.00000000	     -0.00000000	      0.00000000	      0.00000000	      0.00000000	      0.00000000	      0.00000000	      0.00000000	      0.00000000
      6.07000000	      0.00000000	     -0.00000000	      0.00000000	      0.00000000	      0.00000000	      0.00000000	      0.00000000	      0.00000000	      0.00000000	     11.55246353	     74.33296967	   -472.02380371	   -299.62496476	  -1195.24049225	      0.00000000	      0.00000000	      0.00000000	    747.46385291	     -8.82696609	    -74.10237044	   -450.58108521	   -269.26277375	   -587.20237313	      0.00000000	      0.00000000	     -0.00000000	  -5539.74922918	      0.00000000	     -0.00000000	      0.00000000	      0.00000000	      0.00000000	      0.00000000	      0.00000000	      0.00000000	      0.00000000
      6.08000000	      0.00000000	     -0.00000000	      0.00000000	      0.00000000	      0.00000000	      0.00000000	      0.00000000	      0.00000000	      0.00000000	     10.75106335	     74.91291046	   -473.78616333	   -300.28425761	  -1194.88854923	      0.00000000	      0.00000000	      0.00000000	    705.12088052	     -8.56025950	    -72.68740007	   -448.84106445	   -269.76159305	   -587.04155225	      0.00000000	      0.00000000	     -0.00000000	  -5582.13873911	      0.00000000	     -0.00000000	      0.00000000	      0.00000000	      0.00000000	      0.00000000	      0.00000000	      0.00000000	      0.00000000
      6.09000000	      0.00000000	     -0.00000000	      0.00000000	      0.00000000	      0.00000000	      0.00000000	      0.00000000	      0.00000000	      0.00000000	     10.75040627	     75.09505463	   -476.97164917	   -300.45788391	  -1194.42727680	      0.00000000	      0.00000000	      0.00000000	    782.76017002	     -8.33786557	    -73.39721607	   -455.12478638	   -270.01859473	   -587.27361828	      0.00000000	      0.00000000	     -0.00000000	  -5668.61371850	      0.00000000	     -0.00000000	      0.00000000	      0.00000000	      0.00000000	      0.00000000	      0.00000000	      0.00000000	      0.00000000
      6.10000000	      0.00000000	     -0.00000000	      0.00000000	      0.00000000	      0.00000000	      0.00000000	      0.00000000	      0.00000000	      0.00000000	     11.37764645	     74.99729156	   -479.44439697	   -300.55766168	  -1194.82577031	      0.00000000	      0.00000000	      0.00000000	    897.84407837	     -8.64751326	    -74.89917680	   -458.26385498	   -270.00724600	   -587.66954797	      0.00000000	     -0.00000000	     -0.00000000	  -5621.54278302	      0.00000000	     -0.00000000	      0.00000000	      0.00000000	      0.00000000	      0.00000000	      0.00000000	      0.00000000	      0.00000000
      6.11000000	      0.00000000	     -0.00000000	      0.00000000	      0.00000000	      0.00000000	      0.00000000	      0.00000000	      0.00000000	      0.00000000	     11.46276760	     74.65062714	   -478.89340210	   -300.80280434	  -1195.10929254	      0.00000000	      0.00000000	      0.00000000	    793.45400343	     -9.22592825	    -75.73656383	   -459.13439941	   -270.63820924	   -587.14697022	      0.00000000	      0.00000000	     -0.00000000	  -5643.59090887	      0.00000000	     -0.00000000	      0.00000000	      0.00000000	      0.00000000	      0.00000000	      0.00000000	      0.00000000	      0.00000000
      6.12000000	      0.00000000	     -0.00000000	      0.00000000	      0.00000000	      0.00000000	      0.00000000	      0.00000000	      0.00000000	      0.00000000	     11.23875427	     74.91321564	   -481.03106689	   -301.30823555	  -1194.15283447	      0.00000000	      0.00000000	      0.00000000	    881.02045613	    -10.01775928	    -75.91004093	   -461.06442261	   -270.91679362	   -587.67071252	      0.00000000	      0.00000000	     -0.00000000	  -5666.70891442	      0.00000000	     -0.00000000	      0.00000000	      0.00000000	      0.00000000	      0.00000000	      0.00000000	      0.00000000	      0.00000000
